<?xml version="1.0" standalone="no"?>
<!DOCTYPE svg PUBLIC "-//W3C//DTD SVG 20010904//EN"
 "http://www.w3.org/TR/2001/REC-SVG-20010904/DTD/svg10.dtd">
<svg version="1.0" xmlns="http://www.w3.org/2000/svg"
 width="200.000000pt" height="200.000000pt" viewBox="0 0 200.000000 200.000000"
 preserveAspectRatio="xMidYMid meet">
<metadata>
Created by potrace 1.14, written by Peter Selinger 2001-2017
</metadata>
<g transform="translate(0.000000,200.000000) scale(0.100000,-0.100000)"
fill="#000000" stroke="none">
<path d="M0 1000 l0 -1000 1000 0 1000 0 0 1000 0 1000 -1000 0 -1000 0 0
-1000z m1560 439 c63 -71 114 -136 114 -143 -2 -24 -666 -937 -680 -934 -10 2
-308 408 -637 870 l-48 67 118 135 118 135 450 0 450 0 115 -130z"/>
<path d="M476 1426 c-47 -51 -86 -96 -86 -100 0 -3 59 -6 131 -6 l130 0 43 93
c24 50 42 95 39 100 -2 4 -42 7 -88 7 l-83 0 -86 -94z"/>
<path d="M744 1426 c-24 -53 -44 -98 -44 -101 0 -3 63 -5 140 -5 l141 0 -3 98
-3 97 -93 3 -93 3 -45 -95z"/>
<path d="M1020 1420 l0 -100 135 0 c74 0 135 3 135 6 0 3 -19 48 -41 100 l-42
94 -93 0 -94 0 0 -100z"/>
<path d="M1260 1510 c0 -6 18 -49 39 -98 l40 -87 137 -3 137 -3 -43 48 c-24
26 -65 72 -92 101 l-50 52 -84 0 c-50 0 -84 -4 -84 -10z"/>
<path d="M380 1275 c0 -7 506 -713 527 -735 15 -15 10 -2 -155 460 l-99 275
-136 3 c-76 1 -137 0 -137 -3z"/>
<path d="M700 1271 c0 -17 261 -736 271 -746 6 -6 8 131 7 370 l-3 380 -137 3
c-82 1 -138 -1 -138 -7z"/>
<path d="M1020 898 c0 -210 2 -379 4 -377 3 3 41 106 237 652 l38 107 -139 0
-140 0 0 -382z"/>
<path d="M1225 953 c-65 -181 -127 -350 -137 -378 -15 -38 -16 -47 -4 -35 21
22 526 724 526 733 0 4 -60 7 -133 7 l-134 0 -118 -327z"/>
</g>
</svg>
